<?xml version="1.0" encoding="utf-8"?>
<!-- Generator: Adobe Illustrator 16.0.0, SVG Export Plug-In . SVG Version: 6.00 Build 0)  -->
<!DOCTYPE svg PUBLIC "-//W3C//DTD SVG 1.1//EN" "http://www.w3.org/Graphics/SVG/1.1/DTD/svg11.dtd">
<svg version="1.1" id="Layer_1" xmlns="http://www.w3.org/2000/svg" xmlns:xlink="http://www.w3.org/1999/xlink" x="0px" y="0px"
	 width="220px" height="220px" viewBox="0 0 220 220" enable-background="new 0 0 220 220" xml:space="preserve">
<path fill="#FFFFFF" d="M178.186,25H41.509C18.732,25,7.342,36.243,7.342,59.024L7.5,161.715C7.342,184.496,18.732,196,41.509,196
	h136.677C200.961,196,213,184.322,213,161.477V58.96C213,36.179,200.961,25,178.186,25z M101.08,175H25.16
	c-4.247,0-3.16-3.713-3.16-6.158V75.088C22,72.554,22.969,71,25.519,71h0.363C28.432,71,31,72.554,31,75.088v89.055
	c27-3.402,47.182-4.008,72.365,3.158C107.302,169.555,105.264,175,101.08,175z M106.475,158.326
	c-32.396-12.834-67.168-5.227-67.168-5.227l0.026-92.627c0,0,5.827-4.826,25.268-4.826c26.538,1.47,41.911,10.88,41.911,10.88
	L106.475,158.326z M113.641,66.526c0,0,15.443-9.41,42.007-10.88c19.42,0,25.353,4.826,25.353,4.826V153.1
	c0,0-34.852-7.607-67.242,5.227L113.641,66.526z M200,168.863c0,2.424-0.376,5.584-4.647,5.363l-76.087-0.021
	c-4.184,0.539-5.884-5.047-1.958-7.281c25.184-7.186,45.692-6.184,72.692-2.76V75.098c0-2.529,1.73-4.098,4.266-4.098h0.379
	c2.535,0,5.355,1.569,5.355,4.098V168.863z"/>
</svg>
